# xmcd
#
# Track frame offsets: 
#        150
#        22928
#        48115
#        75292
#        94560
#        119650
#        152343
#        168913
#        189929
#
# Disc length: 2867 seconds
#
# Revision: 0
# Processed by: cddbd v1.5.2PL0 Copyright (c) Steve Scherf et al.
# Submitted via: ExactAudioCopyFreeDBPlugin 1.0
#
DISCID=530b3109
DTITLE=Johnny Oskam - In My Shadow
DYEAR=2017
DGENRE=Blues
TTITLE0=Badlands
TTITLE1=Deep In My Bones
TTITLE2=Turn The Key
TTITLE3=Hold Your Tongue
TTITLE4=Waiting For The Rain
TTITLE5=Devil's Comin'
TTITLE6=Drag You Down
TTITLE7=I Want You To Stay
TTITLE8=Limbo Lane
EXTD=
EXTT0=
EXTT1=
EXTT2=
EXTT3=
EXTT4=
EXTT5=
EXTT6=
EXTT7=
EXTT8=
PLAYORDER=
